# Wavefront OBJ file automatically generated by Tiled2Unity

# Vertices (Count = 342)
v -560 -464 0
v -576 -464 0
v -576 -448 0
v -560 -448 0
v -592 -464 0
v -592 -448 0
v -608 -464 0
v -608 -448 0
v -624 -464 0
v -624 -448 0
v -640 -464 0
v -640 -448 0
v -656 -464 0
v -656 -448 0
v -672 -464 0
v -672 -448 0
v -688 -464 0
v -688 -448 0
v -704 -464 0
v -704 -448 0
v -720 -464 0
v -720 -448 0
v -496 -480 0
v -512 -480 0
v -512 -464 0
v -496 -464 0
v -528 -480 0
v -528 -464 0
v -544 -480 0
v -544 -464 0
v -560 -480 0
v -720 -480 0
v -736 -480 0
v -736 -464 0
v -752 -480 0
v -752 -464 0
v -768 -480 0
v -768 -464 0
v -784 -480 0
v -784 -464 0
v -800 -480 0
v -800 -464 0
v -816 -480 0
v -816 -464 0
v -432 -496 0
v -448 -496 0
v -448 -480 0
v -432 -480 0
v -464 -496 0
v -464 -480 0
v -480 -496 0
v -480 -480 0
v -496 -496 0
v -736 -496 0
v -752 -496 0
v -768 -496 0
v -784 -496 0
v -800 -496 0
v -816 -496 0
v -400 -512 0
v -416 -512 0
v -416 -496 0
v -400 -496 0
v -432 -512 0
v -816 -512 0
v -832 -512 0
v -832 -496 0
v -848 -512 0
v -848 -496 0
v -368 -528 0
v -384 -528 0
v -384 -512 0
v -368 -512 0
v -400 -528 0
v -848 -528 0
v -864 -528 0
v -864 -512 0
v -880 -528 0
v -880 -512 0
v -336 -544 0
v -352 -544 0
v -352 -528 0
v -336 -528 0
v -368 -544 0
v -880 -544 0
v -896 -544 0
v -896 -528 0
v -912 -544 0
v -912 -528 0
v -928 -544 0
v -928 -528 0
v -320 -560 0
v -336 -560 0
v -320 -544 0
v -928 -560 0
v -944 -560 0
v -944 -544 0
v -304 -576 0
v -320 -576 0
v -304 -560 0
v -944 -576 0
v -960 -576 0
v -960 -560 0
v -288 -592 0
v -304 -592 0
v -288 -576 0
v -960 -592 0
v -976 -592 0
v -976 -576 0
v -288 -608 0
v -304 -608 0
v -976 -608 0
v -992 -608 0
v -992 -592 0
v -272 -624 0
v -288 -624 0
v -272 -608 0
v -992 -624 0
v -1008 -624 0
v -1008 -608 0
v -256 -640 0
v -272 -640 0
v -256 -624 0
v -1008 -640 0
v -1024 -640 0
v -1024 -624 0
v -240 -656 0
v -256 -656 0
v -240 -640 0
v -1024 -656 0
v -1040 -656 0
v -1040 -640 0
v -240 -672 0
v -256 -672 0
v -1040 -672 0
v -1056 -672 0
v -1056 -656 0
v -224 -688 0
v -240 -688 0
v -224 -672 0
v -1040 -688 0
v -1056 -688 0
v -224 -704 0
v -240 -704 0
v -1056 -704 0
v -1072 -704 0
v -1072 -688 0
v -224 -720 0
v -240 -720 0
v -1056 -720 0
v -1072 -720 0
v -208 -736 0
v -224 -736 0
v -208 -720 0
v -1072 -736 0
v -1088 -736 0
v -1088 -720 0
v -208 -752 0
v -224 -752 0
v -1072 -752 0
v -1088 -752 0
v -208 -768 0
v -224 -768 0
v -1088 -768 0
v -1104 -768 0
v -1104 -752 0
v -208 -784 0
v -224 -784 0
v -1088 -784 0
v -1104 -784 0
v -208 -800 0
v -224 -800 0
v -1088 -800 0
v -1104 -800 0
v -208 -816 0
v -224 -816 0
v -1104 -816 0
v -1120 -816 0
v -1120 -800 0
v -208 -832 0
v -224 -832 0
v -1104 -832 0
v -1120 -832 0
v -208 -848 0
v -224 -848 0
v -1104 -848 0
v -1120 -848 0
v -208 -864 0
v -224 -864 0
v -1104 -864 0
v -1120 -864 0
v -208 -880 0
v -224 -880 0
v -1104 -880 0
v -1120 -880 0
v -208 -896 0
v -224 -896 0
v -1104 -896 0
v -1120 -896 0
v -208 -912 0
v -224 -912 0
v -1104 -912 0
v -1120 -912 0
v -224 -928 0
v -240 -928 0
v -240 -912 0
v -1104 -928 0
v -1120 -928 0
v -224 -944 0
v -240 -944 0
v -1104 -944 0
v -1120 -944 0
v -240 -960 0
v -256 -960 0
v -256 -944 0
v -1104 -960 0
v -1120 -960 0
v -256 -976 0
v -272 -976 0
v -272 -960 0
v -1104 -976 0
v -1120 -976 0
v -272 -992 0
v -288 -992 0
v -288 -976 0
v -1088 -992 0
v -1104 -992 0
v -1088 -976 0
v -288 -1008 0
v -304 -1008 0
v -304 -992 0
v -1072 -1008 0
v -1088 -1008 0
v -1072 -992 0
v -304 -1024 0
v -320 -1024 0
v -320 -1008 0
v -1056 -1024 0
v -1072 -1024 0
v -1056 -1008 0
v -320 -1040 0
v -336 -1040 0
v -336 -1024 0
v -352 -1040 0
v -352 -1024 0
v -1040 -1040 0
v -1056 -1040 0
v -1040 -1024 0
v -352 -1056 0
v -368 -1056 0
v -368 -1040 0
v -384 -1056 0
v -384 -1040 0
v -1024 -1056 0
v -1040 -1056 0
v -1024 -1040 0
v -384 -1072 0
v -400 -1072 0
v -400 -1056 0
v -416 -1072 0
v -416 -1056 0
v -432 -1072 0
v -432 -1056 0
v -976 -1072 0
v -992 -1072 0
v -992 -1056 0
v -976 -1056 0
v -1008 -1072 0
v -1008 -1056 0
v -1024 -1072 0
v -432 -1088 0
v -448 -1088 0
v -448 -1072 0
v -464 -1088 0
v -464 -1072 0
v -480 -1088 0
v -480 -1072 0
v -928 -1088 0
v -944 -1088 0
v -944 -1072 0
v -928 -1072 0
v -960 -1088 0
v -960 -1072 0
v -976 -1088 0
v -480 -1104 0
v -496 -1104 0
v -496 -1088 0
v -512 -1104 0
v -512 -1088 0
v -816 -1104 0
v -832 -1104 0
v -832 -1088 0
v -816 -1088 0
v -848 -1104 0
v -848 -1088 0
v -864 -1104 0
v -864 -1088 0
v -880 -1104 0
v -880 -1088 0
v -896 -1104 0
v -896 -1088 0
v -912 -1104 0
v -912 -1088 0
v -928 -1104 0
v -512 -1120 0
v -528 -1120 0
v -528 -1104 0
v -544 -1120 0
v -544 -1104 0
v -560 -1120 0
v -560 -1104 0
v -576 -1120 0
v -576 -1104 0
v -592 -1120 0
v -592 -1104 0
v -608 -1120 0
v -608 -1104 0
v -624 -1120 0
v -624 -1104 0
v -640 -1120 0
v -640 -1104 0
v -656 -1120 0
v -656 -1104 0
v -672 -1120 0
v -672 -1104 0
v -688 -1120 0
v -688 -1104 0
v -704 -1120 0
v -704 -1104 0
v -720 -1120 0
v -720 -1104 0
v -736 -1120 0
v -736 -1104 0
v -752 -1120 0
v -752 -1104 0
v -768 -1120 0
v -768 -1104 0
v -784 -1120 0
v -784 -1104 0
v -800 -1120 0
v -800 -1104 0
v -816 -1120 0

# Texture cooridinates (Count = 4)
vt 0.0001220703 0.0001220703
vt 0.9998779 0.0001220703
vt 0.9998779 0.9998779
vt 0.0001220703 0.9998779

# Normal
vn 0 0 -1

# Groups (Count = 1)

g mesh_0001
f 1/1/1 2/2/1 3/3/1 4/4/1
f 2/1/1 5/2/1 6/3/1 3/4/1
f 5/1/1 7/2/1 8/3/1 6/4/1
f 7/1/1 9/2/1 10/3/1 8/4/1
f 9/1/1 11/2/1 12/3/1 10/4/1
f 11/1/1 13/2/1 14/3/1 12/4/1
f 13/1/1 15/2/1 16/3/1 14/4/1
f 15/1/1 17/2/1 18/3/1 16/4/1
f 17/1/1 19/2/1 20/3/1 18/4/1
f 19/1/1 21/2/1 22/3/1 20/4/1
f 23/1/1 24/2/1 25/3/1 26/4/1
f 24/1/1 27/2/1 28/3/1 25/4/1
f 27/1/1 29/2/1 30/3/1 28/4/1
f 29/1/1 31/2/1 1/3/1 30/4/1
f 32/1/1 33/2/1 34/3/1 21/4/1
f 33/1/1 35/2/1 36/3/1 34/4/1
f 35/1/1 37/2/1 38/3/1 36/4/1
f 37/1/1 39/2/1 40/3/1 38/4/1
f 39/1/1 41/2/1 42/3/1 40/4/1
f 41/1/1 43/2/1 44/3/1 42/4/1
f 45/1/1 46/2/1 47/3/1 48/4/1
f 46/1/1 49/2/1 50/3/1 47/4/1
f 49/1/1 51/2/1 52/3/1 50/4/1
f 51/1/1 53/2/1 23/3/1 52/4/1
f 54/1/1 55/2/1 35/3/1 33/4/1
f 55/1/1 56/2/1 37/3/1 35/4/1
f 56/1/1 57/2/1 39/3/1 37/4/1
f 57/1/1 58/2/1 41/3/1 39/4/1
f 58/1/1 59/2/1 43/3/1 41/4/1
f 60/1/1 61/2/1 62/3/1 63/4/1
f 61/1/1 64/2/1 45/3/1 62/4/1
f 65/1/1 66/2/1 67/3/1 59/4/1
f 66/1/1 68/2/1 69/3/1 67/4/1
f 70/1/1 71/2/1 72/3/1 73/4/1
f 71/1/1 74/2/1 60/3/1 72/4/1
f 75/1/1 76/2/1 77/3/1 68/4/1
f 76/1/1 78/2/1 79/3/1 77/4/1
f 80/1/1 81/2/1 82/3/1 83/4/1
f 81/1/1 84/2/1 70/3/1 82/4/1
f 85/1/1 86/2/1 87/3/1 78/4/1
f 86/1/1 88/2/1 89/3/1 87/4/1
f 88/1/1 90/2/1 91/3/1 89/4/1
f 92/1/1 93/2/1 80/3/1 94/4/1
f 95/1/1 96/2/1 97/3/1 90/4/1
f 98/1/1 99/2/1 92/3/1 100/4/1
f 101/1/1 102/2/1 103/3/1 96/4/1
f 104/1/1 105/2/1 98/3/1 106/4/1
f 107/1/1 108/2/1 109/3/1 102/4/1
f 110/1/1 111/2/1 105/3/1 104/4/1
f 112/1/1 113/2/1 114/3/1 108/4/1
f 115/1/1 116/2/1 110/3/1 117/4/1
f 118/1/1 119/2/1 120/3/1 113/4/1
f 121/1/1 122/2/1 115/3/1 123/4/1
f 124/1/1 125/2/1 126/3/1 119/4/1
f 127/1/1 128/2/1 121/3/1 129/4/1
f 130/1/1 131/2/1 132/3/1 125/4/1
f 133/1/1 134/2/1 128/3/1 127/4/1
f 135/1/1 136/2/1 137/3/1 131/4/1
f 138/1/1 139/2/1 133/3/1 140/4/1
f 141/1/1 142/2/1 136/3/1 135/4/1
f 143/1/1 144/2/1 139/3/1 138/4/1
f 145/1/1 146/2/1 147/3/1 142/4/1
f 148/1/1 149/2/1 144/3/1 143/4/1
f 150/1/1 151/2/1 146/3/1 145/4/1
f 152/1/1 153/2/1 148/3/1 154/4/1
f 155/1/1 156/2/1 157/3/1 151/4/1
f 158/1/1 159/2/1 153/3/1 152/4/1
f 160/1/1 161/2/1 156/3/1 155/4/1
f 162/1/1 163/2/1 159/3/1 158/4/1
f 164/1/1 165/2/1 166/3/1 161/4/1
f 167/1/1 168/2/1 163/3/1 162/4/1
f 169/1/1 170/2/1 165/3/1 164/4/1
f 171/1/1 172/2/1 168/3/1 167/4/1
f 173/1/1 174/2/1 170/3/1 169/4/1
f 175/1/1 176/2/1 172/3/1 171/4/1
f 177/1/1 178/2/1 179/3/1 174/4/1
f 180/1/1 181/2/1 176/3/1 175/4/1
f 182/1/1 183/2/1 178/3/1 177/4/1
f 184/1/1 185/2/1 181/3/1 180/4/1
f 186/1/1 187/2/1 183/3/1 182/4/1
f 188/1/1 189/2/1 185/3/1 184/4/1
f 190/1/1 191/2/1 187/3/1 186/4/1
f 192/1/1 193/2/1 189/3/1 188/4/1
f 194/1/1 195/2/1 191/3/1 190/4/1
f 196/1/1 197/2/1 193/3/1 192/4/1
f 198/1/1 199/2/1 195/3/1 194/4/1
f 200/1/1 201/2/1 197/3/1 196/4/1
f 202/1/1 203/2/1 199/3/1 198/4/1
f 204/1/1 205/2/1 206/3/1 201/4/1
f 207/1/1 208/2/1 203/3/1 202/4/1
f 209/1/1 210/2/1 205/3/1 204/4/1
f 211/1/1 212/2/1 208/3/1 207/4/1
f 213/1/1 214/2/1 215/3/1 210/4/1
f 216/1/1 217/2/1 212/3/1 211/4/1
f 218/1/1 219/2/1 220/3/1 214/4/1
f 221/1/1 222/2/1 217/3/1 216/4/1
f 223/1/1 224/2/1 225/3/1 219/4/1
f 226/1/1 227/2/1 221/3/1 228/4/1
f 229/1/1 230/2/1 231/3/1 224/4/1
f 232/1/1 233/2/1 226/3/1 234/4/1
f 235/1/1 236/2/1 237/3/1 230/4/1
f 238/1/1 239/2/1 232/3/1 240/4/1
f 241/1/1 242/2/1 243/3/1 236/4/1
f 242/1/1 244/2/1 245/3/1 243/4/1
f 246/1/1 247/2/1 238/3/1 248/4/1
f 249/1/1 250/2/1 251/3/1 244/4/1
f 250/1/1 252/2/1 253/3/1 251/4/1
f 254/1/1 255/2/1 246/3/1 256/4/1
f 257/1/1 258/2/1 259/3/1 252/4/1
f 258/1/1 260/2/1 261/3/1 259/4/1
f 260/1/1 262/2/1 263/3/1 261/4/1
f 264/1/1 265/2/1 266/3/1 267/4/1
f 265/1/1 268/2/1 269/3/1 266/4/1
f 268/1/1 270/2/1 254/3/1 269/4/1
f 271/1/1 272/2/1 273/3/1 262/4/1
f 272/1/1 274/2/1 275/3/1 273/4/1
f 274/1/1 276/2/1 277/3/1 275/4/1
f 278/1/1 279/2/1 280/3/1 281/4/1
f 279/1/1 282/2/1 283/3/1 280/4/1
f 282/1/1 284/2/1 264/3/1 283/4/1
f 285/1/1 286/2/1 287/3/1 276/4/1
f 286/1/1 288/2/1 289/3/1 287/4/1
f 290/1/1 291/2/1 292/3/1 293/4/1
f 291/1/1 294/2/1 295/3/1 292/4/1
f 294/1/1 296/2/1 297/3/1 295/4/1
f 296/1/1 298/2/1 299/3/1 297/4/1
f 298/1/1 300/2/1 301/3/1 299/4/1
f 300/1/1 302/2/1 303/3/1 301/4/1
f 302/1/1 304/2/1 278/3/1 303/4/1
f 305/1/1 306/2/1 307/3/1 288/4/1
f 306/1/1 308/2/1 309/3/1 307/4/1
f 308/1/1 310/2/1 311/3/1 309/4/1
f 310/1/1 312/2/1 313/3/1 311/4/1
f 312/1/1 314/2/1 315/3/1 313/4/1
f 314/1/1 316/2/1 317/3/1 315/4/1
f 316/1/1 318/2/1 319/3/1 317/4/1
f 318/1/1 320/2/1 321/3/1 319/4/1
f 320/1/1 322/2/1 323/3/1 321/4/1
f 322/1/1 324/2/1 325/3/1 323/4/1
f 324/1/1 326/2/1 327/3/1 325/4/1
f 326/1/1 328/2/1 329/3/1 327/4/1
f 328/1/1 330/2/1 331/3/1 329/4/1
f 330/1/1 332/2/1 333/3/1 331/4/1
f 332/1/1 334/2/1 335/3/1 333/4/1
f 334/1/1 336/2/1 337/3/1 335/4/1
f 336/1/1 338/2/1 339/3/1 337/4/1
f 338/1/1 340/2/1 341/3/1 339/4/1
f 340/1/1 342/2/1 290/3/1 341/4/1

